<svg version="1.1" xmlns="http://www.w3.org/2000/svg" viewBox="-291.8399993896484 -970.752001953125 3376.082373046875 1288.194921875"><desc>Created with Snap</desc><defs></defs><g><rect x="-291.8399993896484" y="-970.752001953125" width="3376.082373046875" height="1288.194921875" fill="#143d59" style=""></rect><g><g transform="matrix(1.024,0,0,-1.024,0,0)"><g transform="matrix(1,0,0,1,0,0)"><path d="M266 -10Q159 -10 87 77Q15 164 15 317Q15 470 92 559Q169 648 274 648Q328 648 370 625Q412 603 412 562Q412 543 402 531Q392 519 371 519Q350 519 331 536Q313 553 313 567Q313 582 318 592Q300 600 275 600Q192 600 132 520Q73 440 73 323Q73 253 95 189Q118 125 163 82Q209 40 274 40Q339 40 374 92Q409 145 409 210L409 269L290 269Q267 269 267 295Q267 321 290 321L518 321Q539 321 539 295Q539 269 518 269L466 269L466 215Q466 139 498 101Q518 81 518 68Q518 55 508 46Q499 38 488 38Q461 38 435 92Q418 50 374 20Q330 -10 266 -10Z" fill="#ffffff" style=""></path></g><g transform="matrix(1,0,0,1,548,0)"><g transform="matrix(2.1463,0,0,2.1463,-433.0177,696.3015)"><g transform="matrix(1,0,0,-1,0,0)">
<g>
	<circle cx="237.25" cy="314.22" r="14.86" fill="#ffffff" style=""></circle>
	<circle cx="323.9" cy="314.22" r="14.86" fill="#ffffff" style=""></circle>
	<path fill="none" stroke="#ffffff" stroke-width="10" stroke-linecap="round" stroke-miterlimit="10" d="M211.07,282.96h112.19
		c17.59,0,33.88-9.22,42.95-24.29l85.02-141.4c3.7-6.16,9.6-10.68,16.51-12.65l29.85-8.5" style=""></path>
	<path d="M264.08,152.28c-2.21,2.21-3.56,5.25-3.56,8.6c0,6.7,5.42,12.14,12.14,12.14h117.57l-10.57,17.58
		c-4.52,7.52-12.65,12.11-21.42,12.11h-85.59c-3.35,0-6.39,1.37-8.58,3.56c-2.15,2.13-3.49,5.08-3.56,8.34
		c-0.14,6.81,5.84,12.39,12.65,12.39h84.61l-8.62,14.35c-6.47,10.75-18.08,17.34-30.62,17.37l-61.56,0.25
		c-14.2,0-25.69-11.48-25.71-25.67l-0.13-90.34c-0.02-13.45,10.89-24.36,24.34-24.36h167.16l-10.5,18.01
		c-4.52,7.52-12.64,12.12-21.41,12.12H272.66C269.31,148.72,266.27,150.08,264.08,152.28z" fill="#ffffff" style=""></path>
</g>
<desc>Created with Snap</desc><defs></defs></g></g></g><g transform="matrix(1,0,0,1,1182.9554,0)"><path d="M198 65Q198 78 206 86Q214 94 227 94Q240 94 248 86Q256 79 256 66Q256 37 230 13Q205 -10 167 -10Q129 -10 104 16Q79 43 79 82L79 428L36 428Q25 428 17 436Q10 444 10 454Q10 464 17 472Q25 480 36 480L60 480Q76 480 80 484Q84 489 84 503L84 557Q84 596 124 596Q136 596 136 584L136 480L180 480Q207 480 207 453Q207 443 200 435Q193 428 180 428L136 428L136 83Q136 36 167 36Q198 36 198 65Z" fill="#ffffff" style=""></path></g><g transform="matrix(1,0,0,1,1443.9554,0)"><path fill="#ffffff" style=""></path></g><g transform="matrix(1,0,0,1,1693.9554,0)"><path d="M266 -10Q159 -10 87 77Q15 164 15 317Q15 470 92 559Q169 648 274 648Q328 648 370 625Q412 603 412 562Q412 543 402 531Q392 519 371 519Q350 519 331 536Q313 553 313 567Q313 582 318 592Q300 600 275 600Q192 600 132 520Q73 440 73 323Q73 253 95 189Q118 125 163 82Q209 40 274 40Q339 40 374 92Q409 145 409 210L409 269L290 269Q267 269 267 295Q267 321 290 321L518 321Q539 321 539 295Q539 269 518 269L466 269L466 215Q466 139 498 101Q518 81 518 68Q518 55 508 46Q499 38 488 38Q461 38 435 92Q418 50 374 20Q330 -10 266 -10Z" fill="#ffffff" style=""></path></g><g transform="matrix(1,0,0,1,2241.9554,0)"><path d="M15 241Q15 349 76 418Q138 488 242 488Q347 488 408 419Q470 350 470 242Q470 135 409 64Q348 -6 241 -6Q135 -6 75 64Q15 134 15 241ZM120 99Q169 41 242 41Q315 41 364 98Q414 156 414 241Q414 326 364 383Q314 441 242 441Q170 441 120 384Q71 327 71 242Q71 157 120 99Z" fill="#ffffff" style=""></path></g></g></g></g></svg>